<svg width="22" height="21" viewBox="0 0 22 21" fill="none" xmlns="http://www.w3.org/2000/svg">
<path d="M15.5517 7.21887H14.0345V5.05321C14.0345 2.26683 11.6523 0 8.72413 0C5.79597 0 3.41379 2.26683 3.41379 5.05321V7.21887H1.89655C0.850869 7.21887 0 8.02854 0 9.02359V10.1136C0 10.313 0.169665 10.4746 0.37931 10.4746C0.588955 10.4746 0.75862 10.313 0.75862 10.1136V9.02359C0.75862 8.42648 1.26906 7.94076 1.89655 7.94076H15.5517C16.1792 7.94076 16.6896 8.42648 16.6896 9.02359V10.4674C16.6896 10.6667 16.8593 10.8283 17.069 10.8283C17.2786 10.8283 17.4483 10.6667 17.4483 10.4674V9.02359C17.4483 8.02854 16.5974 7.21887 15.5517 7.21887ZM4.17241 5.05321C4.17241 2.66496 6.21416 0.721887 8.72413 0.721887C11.2341 0.721887 13.2759 2.66496 13.2759 5.05321V7.21887H11.7586V5.05321C11.7586 3.46105 10.3973 2.16566 8.72413 2.16566C7.05096 2.16566 5.68965 3.46105 5.68965 5.05321V7.21887H4.17241V5.05321ZM11 7.21887H6.44827V5.05321C6.44827 3.85899 7.46915 2.88755 8.72413 2.88755C9.97912 2.88755 11 3.85899 11 5.05321V7.21887Z" fill="white"/>
<path d="M0.387233 12.3616C0.601256 12.3616 0.774465 12.2 0.774465 12.0006V11.336C0.774465 11.1367 0.601256 10.9751 0.387233 10.9751C0.173209 10.9751 0 11.1367 0 11.336V12.0006C0 12.2 0.173209 12.3616 0.387233 12.3616Z" fill="white"/>
<path d="M17.069 18.7693C16.8593 18.7693 16.6896 18.931 16.6896 19.1303C16.6896 19.7274 16.1792 20.2131 15.5517 20.2131H1.89655C1.26906 20.2131 0.75862 19.7274 0.75862 19.1303V13.3732C0.75862 13.1738 0.588955 13.0122 0.37931 13.0122C0.169665 13.0122 0 13.1738 0 13.3732V19.1303C0 20.1253 0.850869 20.935 1.89655 20.935H15.5517C16.5974 20.935 17.4483 20.1253 17.4483 19.1303C17.4483 18.931 17.2786 18.7693 17.069 18.7693Z" fill="white"/>
<path d="M20.4827 11.5503H4.931C4.0942 11.5503 3.41376 12.198 3.41376 12.9941V16.6035C3.41376 17.3996 4.0942 18.0473 4.931 18.0473H12.5739C12.7835 18.0473 12.9532 17.8857 12.9532 17.6864C12.9532 17.487 12.7835 17.3254 12.5739 17.3254H4.931C4.51281 17.3254 4.17238 17.0016 4.17238 16.6035V12.9941C4.17238 12.596 4.51281 12.2722 4.931 12.2722H20.4827C20.9009 12.2722 21.2413 12.596 21.2413 12.9941V16.6035C21.2413 17.0016 20.9009 17.3254 20.4827 17.3254H14.7182C14.5086 17.3254 14.3389 17.487 14.3389 17.6864C14.3389 17.8857 14.5086 18.0473 14.7182 18.0473H20.4827C21.3195 18.0473 22 17.3996 22 16.6035V12.9941C22 12.198 21.3195 11.5503 20.4827 11.5503Z" fill="#00E676"/>
<path d="M8.33106 14.0768C8.22587 13.9039 7.99362 13.8449 7.81284 13.9447L7.39647 14.1735V13.7159C7.39647 13.5166 7.22681 13.355 7.01716 13.355C6.80752 13.355 6.63785 13.5166 6.63785 13.7159V14.1735L6.22148 13.9447C6.03998 13.8449 5.80811 13.9039 5.70327 14.0768C5.59843 14.2494 5.66067 14.4702 5.84217 14.57L6.2585 14.7987L5.84217 15.0275C5.66067 15.1273 5.59843 15.3481 5.70327 15.5206C5.77363 15.6364 5.90108 15.7011 6.03221 15.7011C6.09665 15.7011 6.16186 15.6856 6.22148 15.6528L6.63785 15.424V15.8815C6.63785 16.0808 6.80752 16.2425 7.01716 16.2425C7.22681 16.2425 7.39647 16.0808 7.39647 15.8815V15.424L7.81284 15.6528C7.87247 15.6856 7.93767 15.7011 8.00212 15.7011C8.13325 15.7011 8.26066 15.6364 8.33106 15.5206C8.4359 15.3481 8.37365 15.1273 8.19215 15.0275L7.77582 14.7987L8.19215 14.57C8.37365 14.4702 8.4359 14.2494 8.33106 14.0768Z" fill="#00E676"/>
<path d="M12.1242 14.0768C12.019 13.9039 11.7868 13.8449 11.606 13.9447L11.1896 14.1735V13.7159C11.1896 13.5166 11.02 13.355 10.8103 13.355C10.6007 13.355 10.431 13.5166 10.431 13.7159V14.1735L10.0146 13.9447C9.83313 13.8449 9.60126 13.9039 9.49642 14.0768C9.39158 14.2494 9.45382 14.4702 9.63532 14.57L10.0517 14.7987L9.63532 15.0275C9.45382 15.1273 9.39158 15.3481 9.49642 15.5206C9.56678 15.6364 9.69423 15.7011 9.82536 15.7011C9.8898 15.7011 9.95501 15.6856 10.0146 15.6528L10.431 15.424V15.8815C10.431 16.0808 10.6007 16.2425 10.8103 16.2425C11.02 16.2425 11.1896 16.0808 11.1896 15.8815V15.424L11.606 15.6528C11.6656 15.6856 11.7308 15.7011 11.7953 15.7011C11.9264 15.7011 12.0538 15.6364 12.1242 15.5206C12.229 15.3481 12.1668 15.1273 11.9853 15.0275L11.569 14.7987L11.9853 14.57C12.1668 14.4702 12.229 14.2494 12.1242 14.0768Z" fill="#00E676"/>
<path d="M14.9827 15.8815V15.424L15.3991 15.6528C15.4587 15.6856 15.5239 15.7011 15.5884 15.7011C15.7195 15.7011 15.8469 15.6364 15.9173 15.5206C16.0221 15.3481 15.9599 15.1273 15.7784 15.0275L15.3621 14.7987L15.7784 14.57C15.9599 14.4702 16.0221 14.2494 15.9173 14.0768C15.8125 13.9039 15.5799 13.8449 15.3991 13.9447L14.9827 14.1735V13.7159C14.9827 13.5166 14.8131 13.355 14.6034 13.355C14.3938 13.355 14.2241 13.5166 14.2241 13.7159V14.1735L13.8077 13.9447C13.6262 13.8449 13.3944 13.9039 13.2895 14.0768C13.1847 14.2494 13.2469 14.4702 13.4284 14.57L13.8447 14.7987L13.4284 15.0275C13.2469 15.1273 13.1847 15.3481 13.2895 15.5206C13.3599 15.6364 13.4873 15.7011 13.6185 15.7011C13.6829 15.7011 13.7481 15.6856 13.8077 15.6528L14.2241 15.424V15.8815C14.2241 16.0808 14.3938 16.2425 14.6034 16.2425C14.8131 16.2425 14.9827 16.0808 14.9827 15.8815Z" fill="#00E676"/>
<path d="M17.0827 15.5206C17.153 15.6364 17.2805 15.7011 17.4116 15.7011C17.476 15.7011 17.5413 15.6856 17.6009 15.6528L18.0172 15.424V15.8815C18.0172 16.0808 18.1869 16.2425 18.3966 16.2425C18.6062 16.2425 18.7759 16.0808 18.7759 15.8815V15.424L19.1922 15.6528C19.2519 15.6856 19.3171 15.7011 19.3815 15.7011C19.5126 15.7011 19.6401 15.6364 19.7105 15.5206C19.8153 15.3481 19.753 15.1273 19.5715 15.0275L19.1552 14.7987L19.5715 14.57C19.753 14.4702 19.8153 14.2494 19.7105 14.0768C19.6053 13.9039 19.373 13.8449 19.1922 13.9447L18.7759 14.1735V13.7159C18.7759 13.5166 18.6062 13.355 18.3966 13.355C18.1869 13.355 18.0172 13.5166 18.0172 13.7159V14.1735L17.6009 13.9447C17.4194 13.8449 17.1875 13.9039 17.0827 14.0768C16.9778 14.2494 17.0401 14.4702 17.2216 14.57L17.6379 14.7987L17.2216 15.0275C17.0401 15.1273 16.9778 15.3481 17.0827 15.5206Z" fill="#00E676"/>
</svg>
