<svg width="28" height="26" viewBox="0 0 28 26" fill="none" xmlns="http://www.w3.org/2000/svg">
<g id="Group 2">
<g id="Group">
<path id="Vector" d="M19.5749 9.06338H17.7003V6.38765C17.7003 2.94501 14.757 0.144287 11.1392 0.144287C7.52141 0.144287 4.57817 2.94501 4.57817 6.38765V9.06338H2.70358C1.41162 9.06338 0.360352 10.0637 0.360352 11.2931V12.6399C0.360352 12.8862 0.569977 13.0859 0.828998 13.0859C1.08802 13.0859 1.29764 12.8862 1.29764 12.6399V11.2931C1.29764 10.5554 1.9283 9.95528 2.70358 9.95528H19.5749C20.3501 9.95528 20.9808 10.5554 20.9808 11.2931V13.077C20.9808 13.3232 21.1904 13.5229 21.4494 13.5229C21.7085 13.5229 21.9181 13.3232 21.9181 13.077V11.2931C21.9181 10.0637 20.8668 9.06338 19.5749 9.06338ZM5.51546 6.38765C5.51546 3.4369 8.03809 1.0362 11.1392 1.0362C14.2404 1.0362 16.763 3.4369 16.763 6.38765V9.06338H14.8884V6.38765C14.8884 4.4205 13.2065 2.82001 11.1392 2.82001C9.07198 2.82001 7.39005 4.4205 7.39005 6.38765V9.06338H5.51546V6.38765ZM13.9511 9.06338H8.32734V6.38765C8.32734 4.91216 9.58866 3.71192 11.1392 3.71192C12.6898 3.71192 13.9511 4.91216 13.9511 6.38765V9.06338Z" fill="#F5F5F5"/>
<path id="Vector_2" d="M0.838787 15.4173C1.10322 15.4173 1.31722 15.2176 1.31722 14.9713V14.1502C1.31722 13.9039 1.10322 13.7042 0.838787 13.7042C0.574356 13.7042 0.360352 13.9039 0.360352 14.1502V14.9713C0.360352 15.2176 0.574356 15.4173 0.838787 15.4173Z" fill="#222222"/>
<path id="Vector_3" d="M21.4494 23.3339C21.1904 23.3339 20.9808 23.5336 20.9808 23.7799C20.9808 24.5176 20.3501 25.1177 19.5749 25.1177H2.70358C1.9283 25.1177 1.29764 24.5176 1.29764 23.7799V16.6668C1.29764 16.4205 1.08802 16.2208 0.828998 16.2208C0.569977 16.2208 0.360352 16.4205 0.360352 16.6668V23.7799C0.360352 25.0093 1.41162 26.0096 2.70358 26.0096H19.5749C20.8668 26.0096 21.9181 25.0093 21.9181 23.7799C21.9181 23.5336 21.7085 23.3339 21.4494 23.3339Z" fill="#F5F5F5"/>
</g>
<g id="Group_2">
<path id="Vector_4" d="M25.6672 14.4149H6.45271C5.41883 14.4149 4.57812 15.2151 4.57812 16.1987V20.6583C4.57812 21.6419 5.41883 22.4421 6.45271 22.4421H15.8957C16.1547 22.4421 16.3643 22.2424 16.3643 21.9962C16.3643 21.7499 16.1547 21.5502 15.8957 21.5502H6.45271C5.93603 21.5502 5.51542 21.1502 5.51542 20.6583V16.1987C5.51542 15.7069 5.93603 15.3068 6.45271 15.3068H25.6672C26.1839 15.3068 26.6045 15.7069 26.6045 16.1987V20.6583C26.6045 21.1502 26.1839 21.5502 25.6672 21.5502H18.5451C18.286 21.5502 18.0764 21.7499 18.0764 21.9962C18.0764 22.2424 18.286 22.4421 18.5451 22.4421H25.6672C26.7011 22.4421 27.5418 21.6419 27.5418 20.6583V16.1987C27.5418 15.2151 26.7011 14.4149 25.6672 14.4149Z" fill="#CC3131"/>
<path id="Vector_5" d="M10.6536 17.5366C10.5236 17.323 10.2367 17.2501 10.0133 17.3733L9.49891 17.656V17.0907C9.49891 16.8445 9.28928 16.6448 9.03026 16.6448C8.77124 16.6448 8.56161 16.8445 8.56161 17.0907V17.656L8.04718 17.3733C7.82293 17.2501 7.53645 17.323 7.40691 17.5366C7.27738 17.7498 7.35428 18.0226 7.57853 18.1459L8.09292 18.4286L7.57853 18.7112C7.35428 18.8345 7.27738 19.1073 7.40691 19.3205C7.49385 19.4635 7.65131 19.5434 7.81332 19.5434C7.89295 19.5434 7.97351 19.5243 8.04718 19.4838L8.56161 19.2011V19.7664C8.56161 20.0126 8.77124 20.2123 9.03026 20.2123C9.28928 20.2123 9.49891 20.0126 9.49891 19.7664V19.2011L10.0133 19.4838C10.087 19.5243 10.1676 19.5434 10.2472 19.5434C10.4092 19.5434 10.5666 19.4635 10.6536 19.3205C10.7831 19.1073 10.7062 18.8345 10.482 18.7112L9.9676 18.4286L10.482 18.1459C10.7062 18.0226 10.7831 17.7498 10.6536 17.5366Z" fill="#F5F5F5"/>
<path id="Vector_6" d="M15.3401 17.5366C15.2102 17.323 14.9232 17.2501 14.6999 17.3733L14.1854 17.656V17.0907C14.1854 16.8445 13.9758 16.6448 13.7168 16.6448C13.4578 16.6448 13.2481 16.8445 13.2481 17.0907V17.656L12.7337 17.3733C12.5095 17.2501 12.223 17.323 12.0934 17.5366C11.9639 17.7498 12.0408 18.0226 12.2651 18.1459L12.7794 18.4286L12.2651 18.7112C12.0408 18.8345 11.9639 19.1073 12.0934 19.3205C12.1804 19.4635 12.3378 19.5434 12.4998 19.5434C12.5795 19.5434 12.66 19.5243 12.7337 19.4838L13.2481 19.2011V19.7664C13.2481 20.0126 13.4578 20.2123 13.7168 20.2123C13.9758 20.2123 14.1854 20.0126 14.1854 19.7664V19.2011L14.6999 19.4838C14.7735 19.5243 14.8541 19.5434 14.9337 19.5434C15.0957 19.5434 15.2531 19.4635 15.3401 19.3205C15.4697 19.1073 15.3928 18.8345 15.1685 18.7112L14.6541 18.4286L15.1685 18.1459C15.3928 18.0226 15.4697 17.7498 15.3401 17.5366Z" fill="#F5F5F5"/>
<path id="Vector_7" d="M18.8718 19.7664V19.2011L19.3863 19.4838C19.4599 19.5243 19.5405 19.5434 19.6201 19.5434C19.7821 19.5434 19.9396 19.4635 20.0265 19.3205C20.1561 19.1073 20.0792 18.8345 19.8549 18.7112L19.3405 18.4286L19.8549 18.1459C20.0792 18.0226 20.1561 17.7498 20.0265 17.5366C19.897 17.323 19.6096 17.2501 19.3863 17.3733L18.8718 17.656V17.0907C18.8718 16.8445 18.6622 16.6448 18.4032 16.6448C18.1442 16.6448 17.9345 16.8445 17.9345 17.0907V17.656L17.4201 17.3733C17.1959 17.2501 16.9094 17.323 16.7798 17.5366C16.6503 17.7498 16.7272 18.0226 16.9515 18.1459L17.4658 18.4286L16.9515 18.7112C16.7272 18.8345 16.6503 19.1073 16.7798 19.3205C16.8668 19.4635 17.0242 19.5434 17.1862 19.5434C17.2659 19.5434 17.3464 19.5243 17.4201 19.4838L17.9345 19.2011V19.7664C17.9345 20.0126 18.1442 20.2123 18.4032 20.2123C18.6622 20.2123 18.8718 20.0126 18.8718 19.7664Z" fill="#F5F5F5"/>
<path id="Vector_8" d="M21.4664 19.3205C21.5533 19.4635 21.7108 19.5434 21.8728 19.5434C21.9524 19.5434 22.033 19.5243 22.1066 19.4838L22.6211 19.2011V19.7664C22.6211 20.0126 22.8307 20.2123 23.0897 20.2123C23.3487 20.2123 23.5584 20.0126 23.5584 19.7664V19.2011L24.0728 19.4838C24.1465 19.5243 24.227 19.5434 24.3066 19.5434C24.4687 19.5434 24.6261 19.4635 24.7131 19.3205C24.8426 19.1073 24.7657 18.8345 24.5414 18.7112L24.027 18.4286L24.5414 18.1459C24.7657 18.0226 24.8426 17.7498 24.7131 17.5366C24.5831 17.323 24.2961 17.2501 24.0728 17.3733L23.5584 17.656V17.0907C23.5584 16.8445 23.3487 16.6448 23.0897 16.6448C22.8307 16.6448 22.6211 16.8445 22.6211 17.0907V17.656L22.1066 17.3733C21.8824 17.2501 21.5959 17.323 21.4664 17.5366C21.3368 17.7498 21.4137 18.0226 21.638 18.1459L22.1524 18.4286L21.638 18.7112C21.4137 18.8345 21.3368 19.1073 21.4664 19.3205Z" fill="#F5F5F5"/>
</g>
</g>
</svg>
