<svg width="26" height="31" viewBox="0 0 26 31" fill="none" xmlns="http://www.w3.org/2000/svg">
<g id="Group">
<path id="Vector" fill-rule="evenodd" clip-rule="evenodd" d="M8.88879 6.04872C8.88867 5.20043 9.15289 4.37115 9.64804 3.66574C10.1432 2.96033 10.847 2.41048 11.6706 2.08571C12.4941 1.76094 13.4004 1.67583 14.2748 1.84116C15.1491 2.00648 15.9523 2.41481 16.5828 3.01451C17.2133 3.61421 17.6428 4.37835 17.8169 5.21031C17.9911 6.04226 17.9021 6.90467 17.5611 7.68848C17.2202 8.47229 16.6427 9.14231 15.9016 9.6138C15.1605 10.0853 14.2892 10.3371 13.3977 10.3374C12.2026 10.3362 11.0568 9.88401 10.2115 9.08005C9.36627 8.27608 8.89059 7.18595 8.88879 6.04872Z" fill="#CC3131"/>
<path id="Vector_2" fill-rule="evenodd" clip-rule="evenodd" d="M13.397 1.87722C14.2639 1.87763 15.1111 2.12261 15.8317 2.58121C16.5523 3.0398 17.1138 3.69141 17.4452 4.45364C17.7767 5.21588 17.8632 6.05451 17.6938 6.86352C17.5244 7.67253 17.1067 8.41557 16.4936 8.99871C15.8804 9.58186 15.0993 9.97891 14.2491 10.1397C13.3988 10.3004 12.5176 10.2177 11.7167 9.90189C10.9159 9.58609 10.2314 9.05142 9.74987 8.36549C9.26833 7.67956 9.01133 6.87317 9.01137 6.04826C9.01257 4.942 9.47509 3.88141 10.2974 3.09937C11.1196 2.31734 12.2344 1.87778 13.397 1.87722ZM13.397 12.0967C14.654 12.0965 15.8828 11.7416 16.9279 11.0768C17.973 10.4121 18.7874 9.46737 19.2683 8.36216C19.7492 7.25695 19.8749 6.04087 19.6295 4.86768C19.3841 3.6945 18.7787 2.6169 17.8897 1.77114C17.0008 0.925374 15.8682 0.349436 14.6353 0.116145C13.4024 -0.117146 12.1244 0.00268661 10.9631 0.460492C9.80173 0.918297 8.8091 1.69351 8.11073 2.68812C7.41235 3.68273 7.03958 4.85206 7.03956 6.04826C7.04112 7.65215 7.71146 9.18991 8.9034 10.3239C10.0953 11.458 11.7115 12.0956 13.397 12.0967ZM2.86915 20.5776C2.87049 19.0783 3.49685 17.6408 4.61076 16.5806C5.72468 15.5204 7.23514 14.924 8.81065 14.9223H17.9803C19.5561 14.9239 21.0669 15.5202 22.1812 16.5804C23.2956 17.6406 23.9225 19.0781 23.9245 20.5776V27.4812C23.9238 27.6605 23.8485 27.8322 23.715 27.9588C23.5815 28.0853 23.4007 28.1564 23.2123 28.1563H20.2168V21.7042C20.2178 21.5803 20.1931 21.4575 20.144 21.3429C20.0949 21.2282 20.0224 21.1239 19.9308 21.036C19.8391 20.9481 19.7301 20.8783 19.61 20.8307C19.4899 20.7831 19.361 20.7585 19.2309 20.7585C19.1007 20.7585 18.9719 20.7831 18.8518 20.8307C18.7316 20.8783 18.6226 20.9481 18.531 21.036C18.4393 21.1239 18.3669 21.2282 18.3178 21.3429C18.2687 21.4575 18.2439 21.5803 18.245 21.7042V28.1563H8.54601V21.7042C8.54601 21.4554 8.44215 21.2167 8.25726 21.0408C8.07237 20.8649 7.82161 20.766 7.56014 20.766C7.29867 20.766 7.04791 20.8649 6.86302 21.0408C6.67813 21.2167 6.57427 21.4554 6.57427 21.7042V28.1563H3.57873C3.48553 28.1563 3.39324 28.1388 3.30713 28.1049C3.22103 28.0709 3.1428 28.0212 3.07691 27.9584C3.01102 27.8957 2.95875 27.8212 2.92311 27.7393C2.88746 27.6573 2.86912 27.5695 2.86915 27.4808V20.5776ZM3.57873 30.0334H23.2124C23.9238 30.0329 24.606 29.7639 25.1093 29.2853C25.6125 28.8068 25.8957 28.1578 25.8967 27.4808V20.5776C25.8944 18.5804 25.0596 16.6657 23.5754 15.2535C22.0913 13.8413 20.0791 13.047 17.9803 13.0449H8.81065C4.44539 13.0449 0.897339 16.4237 0.897339 20.5773V27.4809C0.897731 28.1576 1.18033 28.8065 1.68307 29.2851C2.18581 29.7636 2.86761 30.0328 3.57873 30.0334Z" fill="#F5F5F5"/>
</g>
</svg>
