<svg width="104" height="104" viewBox="0 0 104 104" fill="none" xmlns="http://www.w3.org/2000/svg">
<g id="Group 340">
<path id="Vector" d="M52 104C80.7188 104 104 80.7188 104 52C104 23.2812 80.7188 0 52 0C23.2812 0 0 23.2812 0 52C0 80.7188 23.2812 104 52 104Z" fill="#00E676"/>
<path id="Vector_2" fill-rule="evenodd" clip-rule="evenodd" d="M35.763 77.3605L16.7449 57.0055C14.1413 54.2188 14.2907 49.8099 17.0774 47.2062C19.8641 44.6025 24.2731 44.7524 26.8768 47.5387L41.5465 63.2394L64.7667 41.5439C64.9756 41.3486 65.1938 41.1697 65.4194 41.0051L76.339 30.8029C79.1257 28.1992 83.535 28.349 86.1383 31.1357C88.742 33.922 88.5921 38.3314 85.8059 40.9351L52.4546 72.0962L52.419 72.0581L40.8824 82.8373L35.763 77.358V77.3605Z" fill="white"/>
</g>
</svg>
