<svg xmlns="http://www.w3.org/2000/svg" width="21" height="21" viewBox="0 0 21 21" fill="none">
  <path d="M12.5757 14.8375L15.5446 11.8685H7.4542C6.59156 11.8685 5.89258 11.1696 5.89258 10.3069C5.89258 9.44429 6.59156 8.74531 7.4542 8.74531H15.544L12.5751 5.77635C11.9654 5.16669 11.9654 4.17788 12.5751 3.56759C13.1847 2.95794 14.1735 2.95794 14.7838 3.56759L20.4188 9.20255C21.0284 9.81221 21.0284 10.801 20.4188 11.4113L14.7838 17.0463C14.1742 17.6559 13.1853 17.6559 12.5751 17.0463C11.9654 16.4366 11.9654 15.4478 12.5751 14.8375H12.5757Z" fill="#FF1D21"/>
  <path d="M9.93338 1.56162C9.93338 0.698982 9.2344 0 8.37176 0H3.99922C2.27456 0 0.875977 1.39859 0.875977 3.12324V17.4902C0.875977 19.2148 2.27456 20.6134 3.99922 20.6134H8.37176C9.2344 20.6134 9.93338 19.9144 9.93338 19.0518C9.93338 18.1891 9.2344 17.4902 8.37176 17.4902H4.78003C4.34902 17.4902 3.99922 17.1404 3.99922 16.7093V3.90405C3.99922 3.47305 4.34902 3.12324 4.78003 3.12324H8.37176C9.2344 3.12324 9.93338 2.42426 9.93338 1.56162Z" fill="#FF1D21"/>
</svg>