<svg width="24" height="24" viewBox="0 0 24 24" fill="none" xmlns="http://www.w3.org/2000/svg">
<g id="Group 212">
<circle id="Ellipse 19" cx="12" cy="12" r="12" fill="white"/>
<path id="Vector" d="M10.625 6H6.875C6.3925 6 6 6.3925 6 6.875V9.125C6 9.6075 6.3925 10 6.875 10H10.625C11.1075 10 11.5 9.6075 11.5 9.125V6.875C11.5 6.3925 11.1075 6 10.625 6Z" fill="#E53935"/>
<path id="Vector_2" d="M10.625 11H6.875C6.3925 11 6 11.3925 6 11.875V17.125C6 17.6075 6.3925 18 6.875 18H10.625C11.1075 18 11.5 17.6075 11.5 17.125V11.875C11.5 11.3925 11.1075 11 10.625 11Z" fill="#E53935"/>
<path id="Vector_3" d="M17.1255 14H13.3755C12.893 14 12.5005 14.3925 12.5005 14.875V17.125C12.5005 17.6075 12.893 18 13.3755 18H17.1255C17.608 18 18.0005 17.6075 18.0005 17.125V14.875C18.0005 14.3925 17.608 14 17.1255 14Z" fill="#E53935"/>
<path id="Vector_4" d="M17.1255 6H13.3755C12.893 6 12.5005 6.3925 12.5005 6.875V12.125C12.5005 12.6075 12.893 13 13.3755 13H17.1255C17.608 13 18.0005 12.6075 18.0005 12.125V6.875C18.0005 6.3925 17.608 6 17.1255 6Z" fill="#E53935"/>
</g>
</svg>
