<svg width="24" height="24" viewBox="0 0 24 24" fill="none" xmlns="http://www.w3.org/2000/svg">
<g id="Group">
<circle id="Ellipse 19" cx="12" cy="12" r="12" fill="white"/>
<path id="Vector" d="M15.1832 11.3384C13.0811 11.3384 11.3662 13.0533 11.3662 15.1554C11.3662 17.2575 13.0534 19.0001 15.1832 19.0001C17.313 19.0001 19.0003 17.2852 19.0003 15.1831C19.0003 13.0809 17.2854 11.3384 15.1832 11.3384ZM16.4832 15.9575H15.0173C14.7407 15.9575 14.4917 15.7363 14.4917 15.432V12.9426C14.4917 12.666 14.713 12.4171 15.0173 12.4171C15.2939 12.4171 15.5428 12.6384 15.5428 12.9426V14.9065H16.4832C16.7598 14.9065 17.0088 15.1277 17.0088 15.432C17.0088 15.7363 16.7875 15.9575 16.4832 15.9575Z" fill="#E53935"/>
<path id="Vector_2" d="M10.7851 16.7043C10.7021 16.7596 10.6191 16.7872 10.5362 16.7872H7.88085C7.65957 16.7872 7.46596 16.5936 7.46596 16.3723C7.46596 16.1511 7.65957 15.9574 7.88085 15.9574H10.5085H10.5915C10.5362 15.7085 10.5085 15.4319 10.5085 15.1553C10.5085 15.0447 10.5085 14.934 10.5362 14.8234C10.5362 14.8234 10.5362 14.8234 10.5085 14.8234H7.88085C7.65957 14.8234 7.46596 14.6298 7.46596 14.4085C7.46596 14.1872 7.65957 13.9936 7.88085 13.9936H10.5085C10.5638 13.9936 10.6191 13.9936 10.6468 14.0213C10.7574 13.5787 10.9234 13.1915 11.1447 12.8043C11.0894 12.8596 11.0064 12.8872 10.8957 12.8872H7.88085C7.65957 12.8872 7.46596 12.6936 7.46596 12.4723C7.46596 12.2511 7.65957 12.0574 7.88085 12.0574H10.8957C11.117 12.0574 11.3106 12.2511 11.3106 12.4723V12.5277C12.1404 11.283 13.5511 10.4809 15.1553 10.4809C15.2936 10.4809 15.4319 10.4809 15.5702 10.5085V6.41489C15.5702 6.19362 15.3766 6 15.1553 6H8.35106C8.24043 6 8.12979 6.05532 8.07447 6.11064L6.1383 8.04681C6.05532 8.12979 6 8.24043 6 8.35106V18.5851C6 18.8064 6.19362 19 6.41489 19H12.5277C11.7255 18.4468 11.0894 17.6447 10.7851 16.7043ZM8.48936 8.21277H13.6894C13.9106 8.21277 14.1043 8.40638 14.1043 8.62766C14.1043 8.84894 13.9106 9.04255 13.6894 9.04255H8.48936C8.26809 9.04255 8.07447 8.84894 8.07447 8.62766C8.07447 8.40638 8.26809 8.21277 8.48936 8.21277ZM7.88085 10.1489H12.6936C12.9149 10.1489 13.1085 10.3426 13.1085 10.5638C13.1085 10.7851 12.9149 10.9787 12.6936 10.9787H7.88085C7.65957 10.9787 7.46596 10.7851 7.46596 10.5638C7.46596 10.3426 7.65957 10.1489 7.88085 10.1489Z" fill="#E53935"/>
</g>
</svg>
