<svg width="24" height="24" viewBox="0 0 24 24" fill="none" xmlns="http://www.w3.org/2000/svg">
<circle cx="12" cy="12" r="12" fill="white"/>
<path d="M7.63054 14.0815H6.04015C5.46662 14.0815 5 14.5482 5 15.1217V18.4911C5 18.8433 5.28657 19.1298 5.63877 19.1298H8.03186C8.38409 19.1298 8.67066 18.8433 8.67066 18.4911V15.1217C8.67066 14.5482 8.20407 14.0815 7.63054 14.0815Z" fill="#E53935"/>
<path d="M12.2985 12.0352H10.7081C10.1346 12.0352 9.66797 12.5018 9.66797 13.0753V18.4911C9.66797 18.8433 9.95454 19.1299 10.3068 19.1299H12.6999C13.0521 19.1299 13.3386 18.8433 13.3386 18.4911V13.0753C13.3386 12.5017 12.872 12.0352 12.2985 12.0352Z" fill="#E53935"/>
<path d="M17.0539 9.70361H15.4635C14.8899 9.70361 14.4233 10.1702 14.4233 10.7437V18.4912C14.4233 18.8435 14.7099 19.13 15.0621 19.13H17.4552C17.8074 19.13 18.094 18.8435 18.094 18.4912V10.7437C18.094 10.1702 17.6274 9.70361 17.0539 9.70361Z" fill="#E53935"/>
<path d="M15.7876 5.39366C15.593 5.11868 15.2766 4.97327 14.9411 5.00407L11.9374 5.28198C11.602 5.31302 11.3176 5.51421 11.1768 5.82018C11.036 6.12616 11.0681 6.47303 11.2626 6.74801L11.4303 6.98496L7.70207 9.56116L7.69826 9.56384C7.43371 9.75104 7.25791 10.0301 7.20324 10.3495C7.14857 10.669 7.22154 10.9906 7.40873 11.2551C7.59593 11.5196 7.87497 11.6954 8.19441 11.7501C8.26362 11.762 8.33292 11.7679 8.40175 11.7679C8.64968 11.7679 8.89119 11.6918 9.09792 11.5462L12.8321 8.96591L13.0052 9.21045C13.1825 9.46101 13.4609 9.60416 13.7627 9.60416C13.7921 9.60416 13.8218 9.60278 13.8516 9.60005C14.187 9.569 14.4714 9.36779 14.6122 9.06179L15.8734 6.32149C16.0142 6.01546 15.9822 5.66862 15.7876 5.39366Z" fill="#E53935"/>
</svg>
