<svg width="24" height="24" viewBox="0 0 24 24" fill="none" xmlns="http://www.w3.org/2000/svg">
<g id="Group 191">
<circle id="Ellipse 20" cx="12" cy="12" r="12" fill="#E53935"/>
<path id="Vector" d="M8.79843 12.4504L8.60829 13L7.47179 12.8233C7.39616 12.8103 7.33999 12.7478 7.33999 12.6724L7.32918 12.2198C7.07639 12.1121 6.83655 11.9677 6.62049 11.7888L6.09977 12.0453L5.34354 11.0108L5.74543 10.5927C5.64171 10.3319 5.57689 10.0603 5.55313 9.78664L5 9.59914L5.19878 8.33405L5.78216 8.32328C5.89019 8.07112 6.03495 7.8319 6.21429 7.61638L5.95933 7.09483L6.99428 6.34267L7.41345 6.74353C7.67489 6.64009 7.94713 6.57543 8.21937 6.54957L8.40951 6L9.54601 6.17672C9.62164 6.18966 9.67781 6.25216 9.67997 6.32974L9.68862 6.78017C9.94141 6.88793 10.1812 7.03233 10.3973 7.21121L10.9202 6.95474L11.6764 7.98922L11.2724 8.40733C11.3761 8.6681 11.4409 8.93966 11.4668 9.21336L11.8946 9.35991C11.9659 9.38362 12.0092 9.45474 11.9984 9.53017L11.819 10.6659L11.2378 10.6767C11.1298 10.9289 10.985 11.1681 10.8057 11.3858L11.0109 11.8039C11.039 11.8621 11.0217 11.9353 10.9677 11.9741L10.1294 12.5819C10.0689 12.6272 9.98462 12.6207 9.93061 12.569L9.60435 12.2586C9.34291 12.3621 9.07283 12.4267 8.79843 12.4504ZM9.88956 8.49569C9.33427 7.73707 8.26475 7.56897 7.5042 8.12284C6.74149 8.67672 6.57512 9.74569 7.12824 10.5043C7.68353 11.2629 8.75521 11.431 9.51576 10.8772C10.2785 10.3233 10.4448 9.25647 9.88956 8.49569Z" fill="white"/>
<path id="Vector_2" d="M11.0334 13.2505L10.6472 12.6952L11.6973 11.6451L12.2505 12.0313C12.5261 11.8706 12.8246 11.7453 13.1399 11.6639L13.2589 11H14.7411L14.8601 11.6639C15.1754 11.7453 15.476 11.8706 15.7495 12.0313L16.3006 11.6451L17.2443 12.5887C17.309 12.6493 17.3152 12.7474 17.2651 12.8205L16.9645 13.2505C17.1294 13.524 17.2547 13.8225 17.3361 14.1399L18 14.2568V15.7432L17.3361 15.858C17.2547 16.1754 17.1294 16.4739 16.9645 16.7495L17.2651 17.1775C17.3152 17.2484 17.309 17.3466 17.2443 17.4092L16.3006 18.3528L15.7495 17.9666C15.476 18.1294 15.1754 18.2547 14.8601 18.3361L14.7662 18.8685C14.7516 18.9436 14.6848 19 14.6096 19H13.4071C13.3194 19 13.2443 18.9353 13.2296 18.8497L13.1378 18.3361C12.8225 18.2547 12.524 18.1294 12.2505 17.9666L11.6973 18.3528L10.7537 17.4092C10.6931 17.3466 10.6827 17.2505 10.7328 17.1775L11.0334 16.7474C10.8706 16.4739 10.7453 16.1754 10.6639 15.858L10 15.7432V14.2547L10.6639 14.1399C10.7453 13.8225 10.8706 13.524 11.0334 13.2505ZM14 16.9791C15.0919 16.9791 15.9791 16.0919 15.9791 15C15.9791 13.9081 15.0919 13.0188 14 13.0188C12.9081 13.0188 12.0209 13.9081 12.0209 15C12.0209 16.0919 12.9081 16.9791 14 16.9791Z" fill="white"/>
<path id="Vector_3" d="M5.51625 15.1248L5.32314 14.8474L5.84895 14.3214L6.12428 14.5165C6.26195 14.4342 6.41109 14.3711 6.56979 14.3309L6.62906 14H7.37094L7.43021 14.3309C7.587 14.3711 7.73805 14.4342 7.8738 14.5165L8.15105 14.3214L8.62141 14.7939C8.65392 14.8245 8.65774 14.8742 8.63289 14.9106L8.48184 15.1248C8.56405 15.2626 8.62715 15.4118 8.6673 15.5686L9 15.6279V16.3721L8.6673 16.4295C8.62715 16.5882 8.56405 16.7374 8.48184 16.8752L8.63289 17.0894C8.65774 17.1258 8.65392 17.1736 8.62141 17.2061L8.15105 17.6786L7.8738 17.4835C7.73805 17.5658 7.587 17.6289 7.43021 17.6691L7.38241 17.935C7.37476 17.9732 7.34226 18 7.30401 18H6.70363C6.65966 18 6.62141 17.9694 6.61568 17.9254L6.56979 17.6691C6.41109 17.6289 6.26195 17.5658 6.12428 17.4835L5.84895 17.6786L5.37667 17.2061C5.34608 17.1736 5.34226 17.1258 5.36711 17.0894L5.51625 16.8752C5.43403 16.7374 5.37285 16.5882 5.33078 16.4295L5 16.3721V15.6279L5.33078 15.5686C5.37285 15.4118 5.43403 15.2626 5.51625 15.1248ZM7 16.99C7.54493 16.99 7.99044 16.5462 7.99044 15.999C7.99044 15.4538 7.54493 15.01 7 15.01C6.45315 15.01 6.00956 15.4538 6.00956 15.999C6.00956 16.5462 6.45315 16.99 7 16.99Z" fill="white"/>
<path id="Vector_4" d="M17.3523 9.59226L17.5411 9.85994C17.5722 9.90535 17.5674 9.9675 17.5268 10.0057L16.9388 10.5961L16.5923 10.3547C16.4202 10.4551 16.2337 10.5339 16.0354 10.5841L15.978 10.9187C15.9685 10.9641 15.9278 11 15.88 11H15.1295C15.0746 11 15.0268 10.9594 15.0172 10.9068L14.9598 10.5841C14.7639 10.5339 14.5774 10.4551 14.4054 10.3547L14.0612 10.5961L13.4708 10.0057C13.4326 9.9675 13.4254 9.90535 13.4589 9.85994L13.6453 9.59226C13.5425 9.42017 13.4661 9.23375 13.4135 9.03776L13 8.96367V8.03394L13.4135 7.96224C13.4661 7.76386 13.5425 7.57744 13.6453 7.40535L13.4039 7.0588L14.0612 6.40392L14.4054 6.64532C14.5774 6.54254 14.7639 6.46606 14.9622 6.41348L15.0363 6H15.9637L16.0354 6.41348C16.2337 6.46606 16.4202 6.54254 16.5923 6.64532L16.9388 6.40392L17.5268 6.99187C17.5674 7.03011 17.5722 7.09226 17.5411 7.13767L17.3523 7.40535C17.4551 7.57744 17.5339 7.76386 17.5841 7.96224L18 8.03394V8.96367L17.5841 9.03776C17.5339 9.23614 17.4551 9.42017 17.3523 9.59226ZM15.5 7.26195C14.8164 7.26195 14.262 7.81644 14.262 8.5C14.262 9.18117 14.8164 9.73805 15.5 9.73805C16.1812 9.73805 16.7357 9.18117 16.7357 8.5C16.7357 7.81644 16.1812 7.26195 15.5 7.26195Z" fill="white"/>
</g>
</svg>
