<svg width="79" height="94" viewBox="0 0 79 94" fill="none" xmlns="http://www.w3.org/2000/svg">
<path id="Vector" d="M75.3522 13.206C72.9601 10.7936 69.6193 9.40815 66.1892 9.40815H12.5577C9.1276 9.40815 5.7868 10.7918 3.39466 13.206C1.09739 15.5242 -0.106118 18.5233 0.00735011 21.6619C0.0929164 23.8696 1.80424 25.6336 4.00106 25.8872L6.60898 81.4511C6.93078 88.2245 12.4405 93.531 19.1537 93.531H59.5931C66.3064 93.531 71.8161 88.2245 72.136 81.4475L74.7439 25.8854C76.9408 25.6318 78.6521 23.8678 78.7376 21.6547C78.853 18.5233 77.6495 15.5224 75.3522 13.206ZM7.67669 17.2302C8.95461 15.9425 10.7329 15.2036 12.5577 15.2036H66.1892C68.014 15.2036 69.7922 15.9425 71.0702 17.2302C71.8979 18.0651 72.4467 19.063 72.6736 20.1225H6.07326C6.30205 19.0612 6.85079 18.0651 7.67669 17.2302ZM66.1892 81.1812C66.0162 84.8559 63.1181 87.7355 59.5931 87.7355H19.1537C15.6288 87.7355 12.7307 84.8577 12.5558 81.183L9.9628 25.9179H68.784L66.1892 81.1812ZM27.3979 35.2287V78.4302C27.3979 80.0312 26.066 81.3279 24.4216 81.3279C22.7773 81.3279 21.4454 80.0312 21.4454 78.4302V35.2287C21.4454 33.6277 22.7773 32.331 24.4216 32.331C26.066 32.331 27.3979 33.6277 27.3979 35.2287ZM42.3515 35.2287V78.4302C42.3515 80.0312 41.0196 81.3279 39.3753 81.3279C37.7309 81.3279 36.3991 80.0312 36.3991 78.4302V35.2287C36.3991 33.6277 37.7309 32.331 39.3753 32.331C41.0196 32.331 42.3515 33.6277 42.3515 35.2287ZM57.3014 35.2287V78.4302C57.3014 80.0312 55.9696 81.3279 54.3252 81.3279C52.6808 81.3279 51.349 80.0312 51.349 78.4302V35.2287C51.349 33.6277 52.6808 32.331 54.3252 32.331C55.9677 32.331 57.3014 33.6277 57.3014 35.2287ZM29.2654 3.70144C29.2654 2.10044 30.5973 0.803711 32.2417 0.803711H46.5052C48.1496 0.803711 49.4814 2.10044 49.4814 3.70144C49.4814 5.30243 48.1496 6.59917 46.5052 6.59917H32.2417C30.5973 6.59917 29.2654 5.30243 29.2654 3.70144Z" fill="#E53935"/>
</svg>
