<svg width="10" height="10" viewBox="0 0 10 10" fill="none" xmlns="http://www.w3.org/2000/svg">
<g id="&#229;&#155;&#190;&#229;&#177;&#130;_x0020_1">
<path id="Vector" d="M5 10C7.76142 10 10 7.76142 10 5C10 2.23858 7.76142 0 5 0C2.23858 0 0 2.23858 0 5C0 7.76142 2.23858 10 5 10Z" fill="#00E676"/>
<path id="Vector_2" fill-rule="evenodd" clip-rule="evenodd" d="M3.43877 7.43865L1.6101 5.48144C1.35975 5.21349 1.37412 4.78955 1.64207 4.5392C1.91003 4.28884 2.33396 4.30325 2.58432 4.57117L3.99487 6.08085L6.22758 3.99475C6.24766 3.97597 6.26865 3.95876 6.29034 3.94294L7.3403 2.96195C7.60825 2.7116 8.03223 2.72601 8.28255 2.99396C8.5329 3.26188 8.51849 3.68585 8.25058 3.93621L5.04373 6.93247L5.0403 6.9288L3.93101 7.96526L3.43877 7.43841V7.43865Z" fill="#16171C"/>
</g>
</svg>
