<svg width="29" height="29" viewBox="0 0 29 29" fill="none" xmlns="http://www.w3.org/2000/svg">
<g id="Capa_1">
<g id="Group">
<g id="Group_2">
<g id="Group_3">
<path id="Vector" d="M8.3313 21.8894H16.6592V25.0395H8.3313V21.8894Z" fill="#CC3131"/>
</g>
</g>
</g>
<g id="Group_4">
<g id="Group_5">
<path id="Vector_2" d="M24.429 10.4739C24.1162 10.4739 23.8626 10.7275 23.8626 11.0403V23.1128C23.8626 23.2479 23.8425 23.3783 23.8057 23.5016L15.5377 16.7539L22.2979 10.257C22.5234 10.0402 22.5306 9.6817 22.3138 9.45616C22.097 9.23067 21.7385 9.22342 21.513 9.44024L14.1911 16.4769C13.7248 16.894 13.1237 17.1237 12.4977 17.1237C11.8718 17.1237 11.2707 16.894 10.8043 16.4769L1.66133 7.6901C1.89151 7.51163 2.1801 7.40503 2.49326 7.40503H22.5021C22.815 7.40503 23.0685 7.15145 23.0685 6.83862C23.0685 6.5258 22.815 6.27222 22.5021 6.27222H2.49326C1.11848 6.27216 0 7.39053 0 8.76514V23.1128C0 24.4874 1.11848 25.6058 2.49326 25.6058H22.5021C23.8769 25.6058 24.9954 24.4874 24.9954 23.1128V11.0403C24.9954 10.7275 24.7418 10.4739 24.429 10.4739ZM1.18968 23.5014C1.15286 23.3782 1.13281 23.2478 1.13281 23.1128V8.76514C1.13281 8.76123 1.1331 8.75744 1.1331 8.75353L9.45468 16.751L1.18968 23.5014ZM2.49326 24.4729C2.29519 24.4729 2.10703 24.4301 1.93711 24.3536L10.2979 17.525C10.9309 17.9987 11.7003 18.2565 12.4977 18.2565C13.2937 18.2565 14.0617 17.9997 14.694 17.5276L23.0581 24.3537C22.8882 24.4301 22.7002 24.4729 22.5022 24.4729H2.49326Z" fill="white"/>
<path id="Vector_3" d="M16.0229 9.72754C16.0229 9.41471 15.7693 9.16113 15.4565 9.16113H9.53882C9.22599 9.16113 8.97241 9.41471 8.97241 9.72754C8.97241 10.0404 9.22599 10.2939 9.53882 10.2939H15.4566C15.7693 10.2939 16.0229 10.0404 16.0229 9.72754Z" fill="white"/>
<path id="Vector_4" d="M10.6601 11.3684C10.3473 11.3684 10.0937 11.622 10.0937 11.9348C10.0937 12.2476 10.3473 12.5012 10.6601 12.5012H14.3305C14.6433 12.5012 14.8969 12.2476 14.8969 11.9348C14.8969 11.622 14.6433 11.3684 14.3305 11.3684H10.6601Z" fill="white"/>
</g>
<g id="Group_6">
<g id="Group_7">
<g id="Group_8">
<g id="Group_9">
<path id="Vector_5" d="M24.429 12.5348C26.9535 12.5348 29 10.4887 29 7.96456C29 5.44047 26.9535 3.39429 24.429 3.39429C21.9045 3.39429 19.858 5.44047 19.858 7.96456C19.858 10.4887 21.9045 12.5348 24.429 12.5348Z" fill="#CC3131"/>
</g>
</g>
</g>
<g id="Group_10">
<g id="Group_11">
<g id="Group_12">
<g id="Group_13">
<path id="Vector_6" d="M24.7268 9.92423C24.414 9.92423 24.1604 9.67065 24.1604 9.35782V7.13745H24.1311C23.8183 7.13745 23.5647 6.88387 23.5647 6.57104C23.5647 6.25822 23.8183 6.00464 24.1311 6.00464H24.7268C25.0397 6.00464 25.2933 6.25822 25.2933 6.57104V9.35782C25.2933 9.67065 25.0397 9.92423 24.7268 9.92423Z" fill="white"/>
</g>
</g>
</g>
</g>
</g>
</g>
</g>
</svg>
