<svg width="29" height="28" viewBox="0 0 29 28" fill="none" xmlns="http://www.w3.org/2000/svg">
<path d="M20.7399 9.91572H18.7963V7.14154C18.7963 3.57223 15.7448 0.668457 11.9938 0.668457C8.24291 0.668457 5.19137 3.57223 5.19137 7.14154V9.91572H3.24781C1.90831 9.91572 0.818359 10.9529 0.818359 12.2275V13.6239C0.818359 13.8792 1.0357 14.0862 1.30425 14.0862C1.5728 14.0862 1.79014 13.8792 1.79014 13.6239V12.2275C1.79014 11.4626 2.444 10.8404 3.24781 10.8404H20.7399C21.5437 10.8404 22.1975 11.4626 22.1975 12.2275V14.077C22.1975 14.3323 22.4149 14.5393 22.6834 14.5393C22.952 14.5393 23.1693 14.3323 23.1693 14.077V12.2275C23.1693 10.9529 22.0794 9.91572 20.7399 9.91572ZM6.16315 7.14154C6.16315 4.08222 8.7786 1.59318 11.9938 1.59318C15.2091 1.59318 17.8245 4.08222 17.8245 7.14154V9.91572H15.881V7.14154C15.881 5.10201 14.1371 3.44263 11.9938 3.44263C9.85052 3.44263 8.10671 5.10201 8.10671 7.14154V9.91572H6.16315V7.14154ZM14.9092 9.91572H9.07849V7.14154C9.07849 5.61176 10.3862 4.36736 11.9938 4.36736C13.6014 4.36736 14.9092 5.61176 14.9092 7.14154V9.91572Z" fill="white"/>
<path d="M1.3144 16.5034C1.58856 16.5034 1.81044 16.2963 1.81044 16.041V15.1897C1.81044 14.9343 1.58856 14.7273 1.3144 14.7273C1.04024 14.7273 0.818359 14.9343 0.818359 15.1897V16.041C0.818359 16.2963 1.04024 16.5034 1.3144 16.5034Z" fill="white"/>
<path d="M22.6834 24.7115C22.4149 24.7115 22.1975 24.9185 22.1975 25.1738C22.1975 25.9387 21.5437 26.5609 20.7399 26.5609H3.24781C2.444 26.5609 1.79014 25.9387 1.79014 25.1738V17.799C1.79014 17.5437 1.5728 17.3367 1.30425 17.3367C1.0357 17.3367 0.818359 17.5437 0.818359 17.799V25.1738C0.818359 26.4485 1.90831 27.4856 3.24781 27.4856H20.7399C22.0794 27.4856 23.1693 26.4485 23.1693 25.1738C23.1693 24.9185 22.952 24.7115 22.6834 24.7115Z" fill="white"/>
<path d="M27.0566 15.4641H7.13509C6.06317 15.4641 5.19153 16.2938 5.19153 17.3136V21.9372C5.19153 22.957 6.06317 23.7867 7.13509 23.7867H16.9255C17.194 23.7867 17.4114 23.5796 17.4114 23.3243C17.4114 23.069 17.194 22.8619 16.9255 22.8619H7.13509C6.5994 22.8619 6.16331 22.4472 6.16331 21.9372V17.3136C6.16331 16.8036 6.5994 16.3888 7.13509 16.3888H27.0566C27.5923 16.3888 28.0284 16.8036 28.0284 17.3136V21.9372C28.0284 22.4472 27.5923 22.8619 27.0566 22.8619H19.6724C19.4038 22.8619 19.1865 23.069 19.1865 23.3243C19.1865 23.5796 19.4038 23.7867 19.6724 23.7867H27.0566C28.1285 23.7867 29.0002 22.957 29.0002 21.9372V17.3136C29.0002 16.2938 28.1285 15.4641 27.0566 15.4641Z" fill="#CC3131"/>
<path d="M11.4906 18.7006C11.3559 18.4791 11.0583 18.4034 10.8268 18.5312L10.2934 18.8243V18.2382C10.2934 17.9829 10.0761 17.7759 9.80751 17.7759C9.53896 17.7759 9.32162 17.9829 9.32162 18.2382V18.8243L8.78826 18.5312C8.55576 18.4034 8.25874 18.4791 8.12444 18.7006C7.99014 18.9216 8.06987 19.2044 8.30237 19.3322L8.83568 19.6253L8.30237 19.9183C8.06987 20.0461 7.99014 20.329 8.12444 20.55C8.21457 20.6983 8.37783 20.7812 8.5458 20.7812C8.62835 20.7812 8.71188 20.7613 8.78826 20.7193L9.32162 20.4262V21.0123C9.32162 21.2677 9.53896 21.4747 9.80751 21.4747C10.0761 21.4747 10.2934 21.2677 10.2934 21.0123V20.4262L10.8268 20.7193C10.9031 20.7613 10.9867 20.7812 11.0692 20.7812C11.2372 20.7812 11.4004 20.6983 11.4906 20.55C11.6249 20.329 11.5452 20.0461 11.3127 19.9183L10.7793 19.6253L11.3127 19.3322C11.5452 19.2044 11.6249 18.9216 11.4906 18.7006Z" fill="#CC3131"/>
<path d="M16.3496 18.7006C16.2149 18.4791 15.9173 18.4034 15.6858 18.5312L15.1524 18.8243V18.2382C15.1524 17.9829 14.9351 17.7759 14.6665 17.7759C14.398 17.7759 14.1806 17.9829 14.1806 18.2382V18.8243L13.6473 18.5312C13.4148 18.4034 13.1177 18.4791 12.9834 18.7006C12.8491 18.9216 12.9289 19.2044 13.1614 19.3322L13.6947 19.6253L13.1614 19.9183C12.9289 20.0461 12.8491 20.329 12.9834 20.55C13.0736 20.6983 13.2368 20.7812 13.4048 20.7812C13.4874 20.7812 13.5709 20.7613 13.6473 20.7193L14.1806 20.4262V21.0123C14.1806 21.2677 14.398 21.4747 14.6665 21.4747C14.9351 21.4747 15.1524 21.2677 15.1524 21.0123V20.4262L15.6858 20.7193C15.7622 20.7613 15.8457 20.7812 15.9282 20.7812C16.0962 20.7812 16.2594 20.6983 16.3496 20.55C16.4839 20.329 16.4042 20.0461 16.1717 19.9183L15.6384 19.6253L16.1717 19.3322C16.4042 19.2044 16.4839 18.9216 16.3496 18.7006Z" fill="#CC3131"/>
<path d="M20.0112 21.0126V20.4265L20.5445 20.7196C20.6209 20.7616 20.7044 20.7814 20.787 20.7814C20.955 20.7814 21.1182 20.6986 21.2084 20.5503C21.3427 20.3293 21.2629 20.0464 21.0304 19.9186L20.4971 19.6255L21.0304 19.3325C21.2629 19.2047 21.3427 18.9218 21.2084 18.7008C21.0741 18.4793 20.7761 18.4037 20.5445 18.5315L20.0112 18.8246V18.2385C20.0112 17.9832 19.7938 17.7761 19.5253 17.7761C19.2567 17.7761 19.0394 17.9832 19.0394 18.2385V18.8246L18.506 18.5315C18.2735 18.4037 17.9765 18.4793 17.8422 18.7008C17.7079 18.9218 17.7876 19.2047 18.0201 19.3325L18.5535 19.6255L18.0201 19.9186C17.7876 20.0464 17.7079 20.3293 17.8422 20.5503C17.9323 20.6986 18.0956 20.7814 18.2636 20.7814C18.3461 20.7814 18.4297 20.7616 18.506 20.7196L19.0394 20.4265V21.0126C19.0394 21.2679 19.2567 21.4749 19.5253 21.4749C19.7938 21.4749 20.0112 21.2679 20.0112 21.0126Z" fill="#CC3131"/>
<path d="M22.7012 20.55C22.7914 20.6983 22.9546 20.7812 23.1226 20.7812C23.2051 20.7812 23.2887 20.7613 23.365 20.7193L23.8984 20.4262V21.0123C23.8984 21.2677 24.1157 21.4747 24.3843 21.4747C24.6528 21.4747 24.8702 21.2677 24.8702 21.0123V20.4262L25.4035 20.7193C25.4799 20.7613 25.5635 20.7812 25.646 20.7812C25.814 20.7812 25.9772 20.6983 26.0674 20.55C26.2017 20.329 26.1219 20.0461 25.8894 19.9183L25.3561 19.6253L25.8894 19.3322C26.1219 19.2044 26.2017 18.9216 26.0674 18.7006C25.9326 18.4791 25.6351 18.4034 25.4035 18.5312L24.8702 18.8243V18.2382C24.8702 17.9829 24.6528 17.7759 24.3843 17.7759C24.1157 17.7759 23.8984 17.9829 23.8984 18.2382V18.8243L23.365 18.5312C23.1325 18.4034 22.8355 18.4791 22.7012 18.7006C22.5669 18.9216 22.6467 19.2044 22.8792 19.3322L23.4125 19.6253L22.8792 19.9183C22.6467 20.0461 22.5669 20.329 22.7012 20.55Z" fill="#CC3131"/>
</svg>
