<svg width="27" height="29" viewBox="0 0 27 29" fill="none" xmlns="http://www.w3.org/2000/svg">
<path d="M21.4872 4.02881H4.70039C2.84616 4.02881 1.34302 5.53196 1.34302 7.38618V25.516C1.34302 27.3702 2.84616 28.8734 4.70039 28.8734H21.4872C23.3415 28.8734 24.8446 27.3702 24.8446 25.516V7.38618C24.8446 5.53196 23.3415 4.02881 21.4872 4.02881Z" fill="#CC3131"/>
<path d="M8.20542 25.1804H8.07113C7.93966 25.1638 7.81277 25.1215 7.6977 25.0558C7.58264 24.9901 7.48167 24.9023 7.40058 24.7975C7.31949 24.6927 7.25987 24.573 7.22515 24.4451C7.19042 24.3172 7.18127 24.1837 7.19821 24.0523C7.42433 22.6605 8.14516 21.3969 9.22824 20.494C10.3113 19.591 11.6839 19.1092 13.0938 19.1371C14.6346 19.1327 16.1207 19.7079 17.2569 20.7487C18.1966 21.6127 18.8087 22.7751 18.9893 24.0389C19.0249 24.3042 18.9537 24.5729 18.7912 24.7857C18.6288 24.9985 18.3884 25.1381 18.1231 25.1737C17.8577 25.2093 17.5891 25.1381 17.3763 24.9756C17.1635 24.8132 17.0239 24.5728 16.9883 24.3075C16.865 23.5098 16.4772 22.7767 15.8871 22.2259C15.1234 21.5306 14.1266 21.1472 13.0938 21.1516C12.1736 21.1212 11.2733 21.4236 10.5579 22.0033C9.84263 22.5829 9.36023 23.401 9.1992 24.3075C9.16954 24.5496 9.05189 24.7723 8.86863 24.9333C8.68538 25.0943 8.44932 25.1822 8.20542 25.1804Z" fill="white"/>
<path d="M13.0937 20.4799C12.2305 20.4799 11.3866 20.2239 10.6689 19.7443C9.95113 19.2648 9.39171 18.5831 9.06136 17.7856C8.73102 16.988 8.64458 16.1105 8.81299 15.2638C8.9814 14.4172 9.39709 13.6395 10.0075 13.0291C10.6179 12.4187 11.3956 12.003 12.2422 11.8346C13.0889 11.6662 13.9664 11.7526 14.764 12.083C15.5615 12.4133 16.2431 12.9727 16.7227 13.6905C17.2023 14.4082 17.4583 15.2521 17.4583 16.1153C17.4548 17.2718 16.9938 18.3799 16.176 19.1976C15.3583 20.0154 14.2502 20.4764 13.0937 20.4799ZM13.0937 13.7652C12.6289 13.7652 12.1745 13.903 11.788 14.1612C11.4016 14.4195 11.1003 14.7865 10.9224 15.216C10.7446 15.6454 10.698 16.1179 10.7887 16.5738C10.8794 17.0297 11.1032 17.4485 11.4319 17.7771C11.7606 18.1058 12.1793 18.3296 12.6352 18.4203C13.0911 18.511 13.5636 18.4645 13.9931 18.2866C14.4225 18.1087 14.7896 17.8075 15.0478 17.421C15.306 17.0345 15.4439 16.5801 15.4439 16.1153C15.4403 15.4931 15.1916 14.8974 14.7516 14.4574C14.3117 14.0174 13.7159 13.7687 13.0937 13.7652Z" fill="white"/>
<path d="M15.7796 0H10.4078C9.4807 0 8.72913 0.751573 8.72913 1.67869V7.05048C8.72913 7.97759 9.4807 8.72917 10.4078 8.72917H15.7796C16.7067 8.72917 17.4583 7.97759 17.4583 7.05048V1.67869C17.4583 0.751573 16.7067 0 15.7796 0Z" fill="#F5F5F5"/>
<path d="M22.4944 28.8734H3.69311C2.71364 28.8734 1.77428 28.4843 1.08169 27.7917C0.389094 27.0991 0 26.1597 0 25.1803V7.72192C0 6.74244 0.389094 5.80309 1.08169 5.11049C1.77428 4.4179 2.71364 4.02881 3.69311 4.02881H9.73638C10.0035 4.02881 10.2597 4.13493 10.4486 4.32381C10.6375 4.5127 10.7436 4.76889 10.7436 5.03602C10.7436 5.30315 10.6375 5.55934 10.4486 5.74823C10.2597 5.93712 10.0035 6.04323 9.73638 6.04323H3.69311C3.24789 6.04323 2.82091 6.22009 2.5061 6.53491C2.19128 6.84972 2.01442 7.2767 2.01442 7.72192V25.1803C2.01442 25.6255 2.19128 26.0524 2.5061 26.3673C2.82091 26.6821 3.24789 26.8589 3.69311 26.8589H22.4944C22.9396 26.8589 23.3666 26.6821 23.6814 26.3673C23.9962 26.0524 24.1731 25.6255 24.1731 25.1803V7.72192C24.1731 7.2767 23.9962 6.84972 23.6814 6.53491C23.3666 6.22009 22.9396 6.04323 22.4944 6.04323H16.4511C16.184 6.04323 15.9278 5.93712 15.7389 5.74823C15.55 5.55934 15.4439 5.30315 15.4439 5.03602C15.4439 4.76889 15.55 4.5127 15.7389 4.32381C15.9278 4.13493 16.184 4.02881 16.4511 4.02881H22.4944C23.4739 4.02881 24.4132 4.4179 25.1058 5.11049C25.7984 5.80309 26.1875 6.74244 26.1875 7.72192V25.1803C26.1875 26.1597 25.7984 27.0991 25.1058 27.7917C24.4132 28.4843 23.4739 28.8734 22.4944 28.8734Z" fill="white"/>
<path d="M16.4511 10.0721H10.4078C9.9626 10.0721 9.53562 9.89525 9.2208 9.58044C8.90599 9.26562 8.72913 8.83864 8.72913 8.39343V1.67869C8.72913 1.23347 8.90599 0.80649 9.2208 0.491676C9.53562 0.176861 9.9626 0 10.4078 0H15.7796C16.2248 0 16.6518 0.176861 16.9666 0.491676C17.2814 0.80649 17.4583 1.23347 17.4583 1.67869V5.03606C17.4583 5.30319 17.3522 5.55937 17.1633 5.74826C16.9744 5.93715 16.7182 6.04327 16.4511 6.04327C16.184 6.04327 15.9278 5.93715 15.7389 5.74826C15.55 5.55937 15.4439 5.30319 15.4439 5.03606V2.01442H10.7435V8.05769H16.4511C16.7182 8.05769 16.9744 8.16381 17.1633 8.3527C17.3522 8.54159 17.4583 8.79777 17.4583 9.0649C17.4583 9.33203 17.3522 9.58822 17.1633 9.77711C16.9744 9.966 16.7182 10.0721 16.4511 10.0721Z" fill="white"/>
</svg>
